<?xml version="1.0" encoding="UTF-8" standalone="no"?>
<!DOCTYPE svg PUBLIC "-//W3C//DTD SVG 1.1//EN" "http://www.w3.org/Graphics/SVG/1.1/DTD/svg11.dtd">
<svg width="100%" height="100%" viewBox="0 0 716 697" version="1.1" xmlns="http://www.w3.org/2000/svg" xmlns:xlink="http://www.w3.org/1999/xlink" xml:space="preserve" xmlns:serif="http://www.serif.com/" style="fill-rule:evenodd;clip-rule:evenodd;stroke-linejoin:round;stroke-miterlimit:2;">
 
        <path id="subtropicalDesert" d="M226.2,606.755C259.754,584.649 481.199,557.698 562.018,546.499C557.786,565.14 527.123,601.339 513.131,610.3C443.136,609.211 304.808,606.241 226.2,606.754L226.2,606.755Z" style="fill:rgb(146,126,48);fill-rule:nonzero;"/>

   
        <path id="tundra" d="M159.719,585.401C217.885,564.849 247.365,522.322 277.381,482.695C282.079,484.708 261.224,577.635 253.904,585.175C250.207,586.724 226.053,603.301 219.69,604.893C184.371,608.208 102.074,604.117 159.718,585.4L159.719,585.401Z" style="fill:rgb(147,167,172);fill-rule:nonzero;"/>


        <path id="seasonalForest" d="M568.315,541.484C589.314,463.401 577.083,444.466 582.625,305.855C623.367,299.411 673.407,284.762 698.041,250.036C707.403,324.453 710.759,466.901 712.015,478.942C685.324,519.458 615.526,531.098 568.313,541.488L568.315,541.484Z" style="fill:rgb(151,165,39);fill-rule:nonzero;"/>


        <path id="taiga" d="M259.799,581.055C272.048,558.152 276.856,509.737 283.049,476.67C304.187,450.245 329.876,402.745 384.451,355.951C376.303,385.472 377.179,379.066 373.991,392.898C369.199,450.988 374.739,520.038 338.501,555.841C322.956,564.129 274.817,577.607 259.801,581.055L259.799,581.055Z" style="fill:rgb(91,143,82);fill-rule:nonzero;"/>
  
   
        <path id="savanna" d="M566.879,545.868C611.174,537.463 674.404,528.827 712.675,484.501C714.769,525.131 715.849,569.426 715.489,610.111C658.948,610.934 591.145,613.149 520.738,610.173C558.415,571.736 562.198,555.636 566.877,545.866L566.879,545.868Z" style="fill:rgb(200,113,55);fill-rule:nonzero;"/>
    
    
        <path id="grasslandDesert" d="M576.63,448.888C577.409,488.345 567.438,537.213 564.124,542.607C477.159,553.828 312.526,578.099 238.714,597.046C255.283,579.796 357.729,562.63 386.638,540.411C479.272,482.774 529.198,460.211 576.63,448.888L576.63,448.888Z" style="fill:rgb(179,124,6);fill-rule:nonzero;"/>
    
  
        <path id="deciduous" d="M376.886,402.023C403.996,346.125 507.768,319.933 579.362,305.987C578.393,352.512 577.34,399.075 576.518,445.637C491.216,460.608 388.075,540.728 344.592,554.916C382.462,506.993 370.908,449.13 376.885,402.026L376.886,402.023Z" style="fill:rgb(44,137,160);fill-rule:nonzero;"/>
  
   
        <path id="rainforest" d="M389.396,353.041C458.711,292.91 555.843,232.288 593.796,173.427C589.726,215.303 581.834,262.584 579.064,302.359C504.911,316.271 426.903,336.536 378.111,389.872C378.355,388.558 389.15,354.356 389.396,353.043L389.396,353.041Z" style="fill:rgb(10,84,109);fill-rule:nonzero;"/>
   
   
        <path id="tropical" d="M583.282,302.019C585.027,263.997 590.871,220.609 597.73,168.578C626.02,115.439 639.682,30.174 655.495,29.063C680.24,36.403 693.188,187.8 697.462,245.017C680.837,270.498 649.01,290.673 583.285,302.022L583.282,302.019Z" style="fill:rgb(7,83,48);fill-rule:nonzero;"/>
  
</svg>
